<svg width="40" height="40" viewBox="0 0 40 40" fill="none" xmlns="http://www.w3.org/2000/svg">
<path d="M39.3523 2.82185V36.704C39.3523 38.2894 38.1213 39.5258 36.5429 39.5258H2.80946C1.231 39.5258 0 38.2894 0 36.704V2.82185C0 1.32617 1.231 0 2.80946 0H36.5429C38.1213 0 39.3523 1.32617 39.3523 2.82185ZM5.61893 9.09373C5.61893 10.9484 7.10804 12.444 8.95454 12.444C10.801 12.444 12.3795 10.9484 12.3795 9.09373C12.3795 7.23909 10.801 5.65367 8.95454 5.65367C7.10804 5.65367 5.61893 7.14935 5.61893 9.09373ZM11.9427 33.8821V14.9967H6.05573V33.8821H11.9427ZM33.7334 23.5619C33.7334 18.4467 32.6811 14.5579 26.7941 14.5579C23.8953 14.5579 22.0488 16.1434 21.2646 17.5593H21.1752V14.9967H15.5563V33.8821H21.4432V24.5291C21.4432 22.0563 21.8801 19.6732 24.8682 19.6732C27.8564 19.6732 27.9457 22.495 27.9457 24.6986V33.8721H33.7433V23.552L33.7334 23.5619Z" fill="#00A1E0"/>
</svg>
